<svg id="Слой_1" data-name="Слой 1" xmlns="http://www.w3.org/2000/svg" viewBox="0 0 844.91 949.49"><defs><style>.cls-1{fill:#fff;}</style></defs><path class="cls-1" d="M492,864.17v92a18.55,18.55,0,0,1-27.81,16.08L86.84,754.9a18.55,18.55,0,0,1-9.29-16.08V276.25a18.55,18.55,0,0,1,9.29-16.08L490.62,27.73a18.54,18.54,0,0,1,18.51,0l404,232.44a18.53,18.53,0,0,1,9.3,16.08V737.62a18.54,18.54,0,0,1-9.27,16.06L535.06,972.17a18.55,18.55,0,0,1-27.84-16.06V865.83a18.53,18.53,0,0,1,9.34-16.1L798.05,688.54a18.54,18.54,0,0,0,9.33-16.1V340.9a18.52,18.52,0,0,0-9.32-16.09L509.22,159.17a18.55,18.55,0,0,0-18.45,0L202.44,324.32a18.56,18.56,0,0,0-9.33,16.1v332.7a18.54,18.54,0,0,0,9.4,16.14L482.64,848A18.55,18.55,0,0,1,492,864.17Z" transform="translate(-77.55 -25.26)"/><path class="cls-1" d="M245.32,352.65,490.88,491.09a18.56,18.56,0,0,0,18.23,0L754.47,352.65a18.56,18.56,0,0,0,.1-32.27L509.21,180a18.52,18.52,0,0,0-18.42,0L245.22,320.38A18.55,18.55,0,0,0,245.32,352.65Z" transform="translate(-77.55 -25.26)"/><path class="cls-1" d="M236.42,366.08,482.33,505.91A18.57,18.57,0,0,1,491.72,522V804.72A18.55,18.55,0,0,1,464,820.82L218,680.14A18.58,18.58,0,0,1,208.69,664V382.2A18.55,18.55,0,0,1,236.42,366.08Z" transform="translate(-77.55 -25.26)"/><path class="cls-1" d="M518.11,504.78,763.54,366a18.56,18.56,0,0,1,27.69,16.15V662A18.56,18.56,0,0,1,782,678L536.56,820.53a18.55,18.55,0,0,1-27.87-16V520.93A18.55,18.55,0,0,1,518.11,504.78Z" transform="translate(-77.55 -25.26)"/></svg>